<svg xmlns="http://www.w3.org/2000/svg" xmlns:xlink="http://www.w3.org/1999/xlink" version="1.1" width="66.15822806954384" height="66.15822806954384" viewBox="-0.5458140335977077 -0.5791140347719193 66.15822806954384 66.15822806954384">
  <defs>
    <linearGradient id="grad_1" x1="352.5928" y1="1042.4482" x2="352.5928" y2="1139.9414" gradientUnits="userSpaceOnUse">
      <stop offset="0" stop-color="#EE2A7B"/>
      <stop offset="1" stop-color="#811150"/>
    </linearGradient>
  <linearGradient id="grad_1-.4632912278175354,0,0,0.4632912278175354,0.8500000000000001,-0.7999999999999998" x1="164.2032" y1="482.1571" x2="164.2032" y2="527.3249" gradientUnits="userSpaceOnUse">
      <stop offset="0" stop-color="#EE2A7B"/>
      <stop offset="1" stop-color="#811150"/>
    </linearGradient></defs>
  <!-- Exported by Scratch - http://scratch.mit.edu/ -->
  <path id="ID0.1816963846795261" fill="#000000" stroke="none" d="M 32.5333 0 C 41.5001 0 49.6251 3.6422 55.5087 9.5247 C 61.3912 15.4083 65.0333 23.5333 65.0333 32.5 C 65.0333 41.4668 61.3912 49.5918 55.5087 55.4753 C 49.6251 61.3578 41.5001 65 32.5333 65 C 23.5666 65 15.4416 61.3578 9.558 55.4753 C 3.6755 49.5918 0.0333 41.4668 0.0333 32.5 C 0.0333 23.5333 3.6755 15.4083 9.558 9.5247 C 15.4416 3.6422 23.5666 0 32.5333 0 Z " stroke-width="1.0833333730697632"/>
  <g id="ID0.16137408139184117">
    <path id="ID0.6278323931619525" fill="url(#grad_1-.4632912278175354,0,0,0.4632912278175354,0.8500000000000001,-0.7999999999999998)" stroke="#FFFFFF" stroke-width="1.1582280695438385" d="M 44.265 37.1885 C 44.265 37.1885 21.3395 37.1982 10.9275 37.1982 C 8.2001 37.1982 5.9893 34.9869 5.9893 32.26 C 5.9893 29.5326 8.2001 27.3222 10.9275 27.3222 C 19.6568 27.3222 44.2382 27.312 44.2382 27.312 C 44.2382 27.312 42.5879 25.6419 34.9746 18.0291 C 33.046 16.1004 33.046 12.9741 34.9746 11.0459 C 36.9042 9.1177 40.0301 9.1172 41.9583 11.0459 C 48.1316 17.2183 59.6746 28.7626 59.6746 28.7626 C 61.6028 30.6913 61.6028 33.818 59.6746 35.7458 C 59.6746 35.7458 49.7133 45.7075 42.1001 53.3208 C 40.1705 55.2504 37.0442 55.2504 35.1164 53.3208 C 33.1877 51.3925 33.1877 48.2653 35.1164 46.3385 C 41.2898 40.1633 44.265 37.1885 44.265 37.1885 Z "/>
  </g>
</svg>