<svg version="1.1" xmlns="http://www.w3.org/2000/svg" xmlns:xlink="http://www.w3.org/1999/xlink" width="62.9981" height="62.998" viewBox="0,0,62.9981,62.998"><defs><linearGradient x1="210.65155" y1="150.5329" x2="210.65155" y2="209.4195" gradientUnits="userSpaceOnUse" id="color-1"><stop offset="0" stop-color="#ea2979"/><stop offset="1" stop-color="#861252"/></linearGradient></defs><g transform="translate(-208.50095,-148.501)"><g data-paper-data="{&quot;isPaintingLayer&quot;:true}" fill-rule="nonzero" stroke="none" stroke-linecap="butt" stroke-linejoin="miter" stroke-miterlimit="10" stroke-dasharray="" stroke-dashoffset="0" style="mix-blend-mode: normal"><path d="M239.99995,148.501c8.6902,0 16.5652,3.5295 22.267,9.2321c5.7026,5.7018 9.2321,13.5767 9.2321,22.2669c0,8.6902 -3.5295,16.5651 -9.2321,22.2669c-5.7018,5.7027 -13.5768,9.2321 -22.267,9.2321c-8.6901,0 -16.5651,-3.5294 -22.2669,-9.2321c-5.7026,-5.7018 -9.2321,-13.5767 -9.2321,-22.2669c0,-8.6902 3.5295,-16.5651 9.2321,-22.2669c5.7018,-5.7026 13.5768,-9.2321 22.2669,-9.2321z" fill="#ffffff" stroke-width="0.78994"/><path d="M240.96645,158.8437c6.2533,0 11.9203,2.3893 16.0241,6.2498c4.103,3.8605 6.643,9.1915 6.643,15.075c0,5.8834 -2.54,11.2144 -6.643,15.0749c-4.1038,3.8606 -9.7708,6.2498 -16.0241,6.2498c-6.2532,0 -11.9202,-2.3892 -16.024,-6.2498c-4.103,-3.8605 -6.643,-9.1915 -6.643,-15.0749c0,-5.8835 2.54,-11.2145 6.643,-15.075c4.1038,-3.8605 9.7708,-6.2498 16.024,-6.2498z" fill="#fcdeed" stroke-width="0.86598"/><path d="M269.53815,179.9762c0,2.7088 -0.3533,5.3194 -1.0599,7.8318c-0.7067,2.5125 -1.6979,4.8581 -2.9737,7.0371c-1.2757,2.1788 -2.807,4.1614 -4.5932,5.9475c-1.7861,1.7862 -3.7687,3.3174 -5.9475,4.5932c-2.1791,1.2758 -4.5247,2.2669 -7.0371,2.9737c-2.5125,0.7067 -5.1231,1.06 -7.8319,1.06c-2.7088,0 -5.3194,-0.3533 -7.8319,-1.06c-2.5125,-0.7067 -4.8582,-1.6979 -7.037,-2.9737c-2.1788,-1.2757 -4.1613,-2.807 -5.9475,-4.5932c-1.7862,-1.7861 -3.3173,-3.7687 -4.5932,-5.9475c-1.2758,-2.1791 -2.2671,-4.5247 -2.9737,-7.037c-0.7067,-2.5125 -1.06,-5.1231 -1.06,-7.8319c0,-2.7088 0.3533,-5.3194 1.06,-7.8319c0.7066,-2.5125 1.6979,-4.858 2.9737,-7.037c1.2759,-2.1788 2.807,-4.1613 4.5932,-5.9475c1.7862,-1.7862 3.7687,-3.3173 5.9475,-4.5932c2.1788,-1.2758 4.5245,-2.2671 7.037,-2.9737c2.5125,-0.7067 5.1231,-1.06 7.8319,-1.06c4.0435,0 7.8614,0.7753 11.4534,2.326c3.5921,1.5507 6.7131,3.651 9.363,6.3009c2.6499,2.6499 4.7502,5.7709 6.3009,9.363c1.5507,3.592 2.326,7.4099 2.326,11.4534zM256.34755,166.1967h-0.0002c0,-0.2748 -0.1374,-0.4907 -0.4122,-0.6477c-0.1963,-0.157 -0.4515,-0.157 -0.7655,0l-2.8855,2.1199l-0.2352,0.1178c-1.5703,-1.5311 -3.386,-2.7481 -5.447,-3.651c-2.0611,-0.9029 -4.2693,-1.3544 -6.6248,-1.3544c-2.3554,0 -4.5833,0.4515 -6.6836,1.3544c-2.1003,0.9029 -3.9258,2.1297 -5.4765,3.6804c-1.5506,1.5507 -2.7774,3.3762 -3.6804,5.4765c-0.9029,2.1003 -1.3544,4.3281 -1.3544,6.6836c0,2.3556 0.4515,4.5833 1.3544,6.6836c0.903,2.1003 2.1298,3.9258 3.6804,5.4765c1.5507,1.5507 3.3762,2.7775 5.4765,3.6804c2.1003,0.9029 4.3282,1.3544 6.6836,1.3544c2.8658,0 5.5454,-0.6772 8.0383,-2.0316c2.4926,-1.3544 4.5635,-3.2093 6.2123,-5.5648c0.1179,-0.1963 0.157,-0.4122 0.1179,-0.6475c-0.0786,-0.2355 -0.1962,-0.4122 -0.3535,-0.5302l-4.2987,-3.0032c-0.1963,-0.157 -0.422,-0.2059 -0.6772,-0.147c-0.2551,0.0588 -0.4613,0.1865 -0.6183,0.3828c-0.9422,1.4133 -2.1591,2.5125 -3.651,3.2976c-1.4918,0.7849 -3.0816,1.1775 -4.7698,1.1775c-1.4133,0 -2.7382,-0.265 -3.9748,-0.795c-1.2366,-0.53 -2.3162,-1.2562 -3.2388,-2.1788c-0.9225,-0.9225 -1.6488,-1.9923 -2.1788,-3.2093c-0.53,-1.2169 -0.795,-2.532 -0.795,-3.9454c0,-1.4133 0.265,-2.7382 0.795,-3.9748c0.53,-1.2367 1.2563,-2.3163 2.1788,-3.2388c0.9226,-0.9226 2.0022,-1.6488 3.2388,-2.1788c1.2366,-0.53 2.5615,-0.795 3.9748,-0.795c1.1776,0 2.2968,0.1963 3.3566,0.5889c1.0597,0.3926 2.0215,0.9225 2.8854,1.5899l-0.4711,0.3533l-2.8854,2.0611c-0.2355,0.1963 -0.3339,0.4318 -0.2945,0.7066c0.0395,0.2748 0.1965,0.4711 0.4711,0.5889l12.3663,4.1809c0.1963,0.1178 0.4122,0.0982 0.6476,-0.0589c0.1963,-0.1963 0.2946,-0.3925 0.2946,-0.5888z" fill="url(#color-1)" stroke-width="0.09622"/></g></g></svg>