<svg xmlns="http://www.w3.org/2000/svg" xmlns:xlink="http://www.w3.org/1999/xlink" version="1.1" width="66.15822806954384" height="66.15822806954384" viewBox="-0.5791140347719193 -0.5791140347719193 66.15822806954384 66.15822806954384">
  <defs>
    <linearGradient id="grad_1" x1="352.5928" y1="1042.4482" x2="352.5928" y2="1139.9414" gradientUnits="userSpaceOnUse">
      <stop offset="0" stop-color="#EE2A7B"/>
      <stop offset="1" stop-color="#811150"/>
    </linearGradient>
  <linearGradient id="grad_1-0.4632912278175354,0,0,0.4632912278175354,66.25,-0.8000000000000007" x1="-97.1032" y1="482.1571" x2="-97.1032" y2="527.3249" gradientUnits="userSpaceOnUse">
      <stop offset="0" stop-color="#EE2A7B"/>
      <stop offset="1" stop-color="#811150"/>
    </linearGradient></defs>
  <!-- Exported by Scratch - http://scratch.mit.edu/ -->
  <path id="ID0.034520945977419615" fill="#000000" stroke="none" d="M 32.5 0 C 41.466 0 49.591 3.642 55.475 9.525 C 61.358 15.409 65 23.534 65 32.5 C 65 41.466 61.358 49.591 55.475 55.475 C 49.591 61.358 41.466 65 32.5 65 C 23.534 65 15.409 61.358 9.525 55.475 C 3.642 49.591 0 41.466 0 32.5 C 0 23.534 3.642 15.409 9.525 9.525 C 15.409 3.642 23.534 0 32.5 0 Z " stroke-width="1"/>
  <g id="ID0.16137408139184117">
    <path id="ID0.6278323931619525" fill="url(#grad_1-0.4632912278175354,0,0,0.4632912278175354,66.25,-0.8000000000000007)" stroke="#FFFFFF" stroke-width="1.1582280695438385" d="M 22.835 37.1885 C 22.835 37.1885 45.7605 37.1982 56.1725 37.1982 C 58.8999 37.1982 61.1107 34.9869 61.1107 32.26 C 61.1107 29.5326 58.8999 27.3222 56.1725 27.3222 C 47.4432 27.3222 22.8618 27.312 22.8618 27.312 C 22.8618 27.312 24.5121 25.6419 32.1254 18.0291 C 34.054 16.1004 34.054 12.9741 32.1254 11.0459 C 30.1958 9.1177 27.0699 9.1172 25.1417 11.0459 C 18.9684 17.2183 7.4254 28.7626 7.4254 28.7626 C 5.4972 30.6913 5.4972 33.818 7.4254 35.7458 C 7.4254 35.7458 17.3867 45.7075 24.9999 53.3208 C 26.9295 55.2504 30.0558 55.2504 31.9836 53.3208 C 33.9123 51.3925 33.9123 48.2653 31.9836 46.3385 C 25.8102 40.1633 22.835 37.1885 22.835 37.1885 Z "/>
  </g>
</svg>